<svg width="100" height="113" viewBox="0 0 100 113" fill="none" xmlns="http://www.w3.org/2000/svg">
<g clip-path="url(#clip0_1_158)">
<path d="M100 0H0V113H100V0Z" fill="white"/>
<path d="M85.6722 13.0439H14.2787C6.43732 13.0439 0.0806274 19.4061 0.0806274 27.2542V98.7089C0.0806274 106.557 6.43732 112.919 14.2787 112.919H85.6722C93.5136 112.919 99.8703 106.557 99.8703 98.7089V27.2542C99.8703 19.4061 93.5136 13.0439 85.6722 13.0439Z" fill="white" stroke="#BDB9B9" stroke-width="0.25"/>
<path d="M0 27.2541C0 19.3615 6.39281 12.9631 14.2787 12.9631H85.6723C93.5581 12.9631 99.951 19.3615 99.951 27.2541V35.8287H0V27.2541Z" fill="#1B4E65"/>
<path d="M19.0936 28.1585V24.6086H23.2444V23.0008H19.0936V21.1873H23.3344V19.5796H17.2687V28.1585H19.0936ZM30.6759 28.1585V26.5507H26.4351V24.6086H30.586V23.0008H26.4351V21.1873H30.6759V19.5796H24.6103V28.1585H30.6759ZM36.7544 28.1585C38.3865 28.1585 39.2475 27.1295 39.2475 25.8433C39.2475 24.7629 38.515 23.8755 37.6026 23.734C38.4122 23.5667 39.0805 22.8465 39.0805 21.7661C39.0805 20.6214 38.2451 19.5796 36.6131 19.5796H32.1024V28.1585H36.7544ZM36.2147 23.0137H33.9273V21.1487H36.2147C36.8316 21.1487 37.2171 21.5475 37.2171 22.0877C37.2171 22.6279 36.8316 23.0137 36.2147 23.0137ZM36.279 26.5764H33.9273V24.5828H36.279C36.9986 24.5828 37.3842 25.0459 37.3842 25.5861C37.3842 26.2035 36.9729 26.5764 36.279 26.5764ZM47.5631 28.1585L45.6355 24.8916C46.5607 24.6729 47.5117 23.8626 47.5117 22.3449C47.5117 20.75 46.4194 19.5796 44.6331 19.5796H40.6236V28.1585H42.4485V25.1102H43.785L45.4684 28.1585H47.5631ZM44.3633 23.5024H42.4485V21.1873H44.3633C45.0958 21.1873 45.6483 21.6246 45.6483 22.3449C45.6483 23.0652 45.0958 23.5024 44.3633 23.5024ZM52.7494 28.3128C55.3582 28.3128 56.6176 26.8594 56.6176 24.7243V19.5796H54.7542V24.6729C54.7542 25.869 54.0731 26.6922 52.7494 26.6922C51.4258 26.6922 50.7318 25.869 50.7318 24.6729V19.5796H48.8813V24.7372C48.8813 26.8465 50.1407 28.3128 52.7494 28.3128ZM65.8729 28.1585L62.57 19.5796H60.2825L56.9671 28.1585H59.0489L59.5886 26.705H63.264L63.7909 28.1585H65.8729ZM62.7628 25.0973H60.0898L61.4263 21.406L62.7628 25.0973ZM73.6039 28.1585L71.6762 24.8916C72.6013 24.6729 73.5523 23.8626 73.5523 22.3449C73.5523 20.75 72.46 19.5796 70.6736 19.5796H66.6639V28.1585H68.4891V25.1102H69.8258L71.5091 28.1585H73.6039ZM70.4039 23.5024H68.4891V21.1873H70.4039C71.1362 21.1873 71.6891 21.6246 71.6891 22.3449C71.6891 23.0652 71.1362 23.5024 70.4039 23.5024ZM78.911 28.1585V24.6472L82.1878 19.5796H80.1065L77.9987 23.0265L75.8652 19.5796H73.7839L77.0865 24.6472V28.1585H78.911Z" fill="#F7F7F4"/>
<path d="M11.0659 100.853V44.4038" stroke="#8AD0DA" stroke-width="1.1066"/>
<path d="M22.4889 100.853V44.4038" stroke="#8AD0DA" stroke-width="1.1066"/>
<path d="M33.1979 100.853V44.4038" stroke="#8AD0DA" stroke-width="1.1066"/>
<path d="M44.6209 100.853V44.4038" stroke="#8AD0DA" stroke-width="1.1066"/>
<path d="M56.0439 100.853V44.4038" stroke="#8AD0DA" stroke-width="1.1066"/>
<path d="M67.8239 100.853V44.4038" stroke="#8AD0DA" stroke-width="1.1066"/>
<path d="M78.5329 100.853V44.4038" stroke="#8AD0DA" stroke-width="1.1066"/>
<path d="M89.9561 100.853V44.4038" stroke="#8AD0DA" stroke-width="1.1066"/>
<path d="M6.42529 47.6189H94.2393" stroke="#8AD0DA" stroke-width="1.1066"/>
<path d="M6.42529 60.481H92.8116" stroke="#8AD0DA" stroke-width="1.1066"/>
<path d="M6.42529 72.6279H92.8116" stroke="#8AD0DA" stroke-width="1.1066"/>
<path d="M6.42529 85.49H92.8116" stroke="#8AD0DA" stroke-width="1.1066"/>
<path d="M7.13922 97.6372H93.5258" stroke="#8AD0DA" stroke-width="1.1066"/>
<path d="M19.2763 62.981C17.8068 64.5935 15.9637 66.3686 14.834 68.2353C14.4057 68.943 13.5648 69.2943 13.5648 70.1266" stroke="#F47575" stroke-width="2.2132" stroke-linecap="round" stroke-linejoin="round"/>
<path d="M14.2787 63.6956C15.8546 65.2429 17.7662 66.3168 19.093 68.0847C19.4035 68.4986 19.6149 69.1527 19.9902 69.4117" stroke="#F47575" stroke-width="2.2132" stroke-linecap="round" stroke-linejoin="round"/>
<path d="M30.6993 50.1208C29.2299 51.7335 27.3867 53.5081 26.257 55.3749C25.8288 56.0827 24.9878 56.4339 24.9878 57.2663" stroke="#F47575" stroke-width="2.2132" stroke-linecap="round" stroke-linejoin="round"/>
<path d="M25.7017 50.8354C27.2777 52.3831 29.1893 53.4566 30.516 55.2248C30.8265 55.6387 31.038 56.2926 31.4132 56.5519" stroke="#F47575" stroke-width="2.2132" stroke-linecap="round" stroke-linejoin="round"/>
<path d="M41.4084 50.8342C39.9389 52.4468 38.0957 54.2215 36.9661 56.0883C36.5378 56.796 35.6968 57.1473 35.6968 57.9797" stroke="#F47575" stroke-width="2.2132" stroke-linecap="round" stroke-linejoin="round"/>
<path d="M36.4108 51.5486C37.9868 53.0962 39.8983 54.1697 41.2251 55.938C41.5355 56.3517 41.7471 57.0056 42.1223 57.265" stroke="#F47575" stroke-width="2.2132" stroke-linecap="round" stroke-linejoin="round"/>
<path d="M19.2763 50.1208C17.8068 51.7335 15.9637 53.5081 14.834 55.3749C14.4057 56.0827 13.5648 56.4339 13.5648 57.2663" stroke="#F47575" stroke-width="2.2132" stroke-linecap="round" stroke-linejoin="round"/>
<path d="M14.2787 50.8354C15.8546 52.3831 17.7662 53.4566 19.093 55.2248C19.4035 55.6387 19.6149 56.2926 19.9902 56.5519" stroke="#F47575" stroke-width="2.2132" stroke-linecap="round" stroke-linejoin="round"/>
<path d="M10.7527 0.611572H7.57576C6.56351 0.611572 5.74292 1.43287 5.74292 2.44599V22.9914C5.74292 24.0046 6.56351 24.8259 7.57576 24.8259H10.7527C11.765 24.8259 12.5856 24.0046 12.5856 22.9914V2.44599C12.5856 1.43287 11.765 0.611572 10.7527 0.611572Z" fill="#1B4E65" stroke="white" stroke-width="1.89394"/>
<path d="M91.6421 0.611572H88.4651C87.4529 0.611572 86.6323 1.43287 86.6323 2.44599V22.9914C86.6323 24.0046 87.4529 24.8259 88.4651 24.8259H91.6421C92.6543 24.8259 93.4749 24.0046 93.4749 22.9914V2.44599C93.4749 1.43287 92.6543 0.611572 91.6421 0.611572Z" fill="#1B4E65" stroke="white" stroke-width="1.89394"/>
</g>
<defs>
<clipPath id="clip0_1_158">
<rect width="100" height="113" fill="white"/>
</clipPath>
</defs>
</svg>
