<svg width="138" height="121" viewBox="0 0 138 121" fill="none" xmlns="http://www.w3.org/2000/svg">
<g clip-path="url(#clip0_1_215)">
<path d="M90.7873 6.43884C90.5637 6.26848 88.4895 4.73017 84.7943 3.24989C80.034 1.34264 74.572 0.334473 68.9989 0.334473C63.4257 0.334473 57.964 1.34264 53.2033 3.24989C49.5085 4.73017 47.4342 6.26848 47.21 6.43911C46.085 7.29439 45.4246 8.62416 45.4246 10.0346V17.1286L49.96 19.5469L54.4957 17.1286V12.595C56.9848 11.3287 61.9624 9.37735 68.9986 9.37735C76.035 9.37735 81.0124 11.3287 83.5016 12.595V17.1283L88.0373 19.5466L92.573 17.1283V10.0346C92.573 8.62391 91.9129 7.29412 90.7873 6.43884Z" fill="#E8834D"/>
<path d="M45.4249 17.1287V22.1212L49.9606 24.5394L54.4963 22.1212V17.1287H45.4249Z" fill="#D66E41"/>
<path d="M92.573 17.1287H83.5024V22.1212L88.0382 24.5394L92.573 22.1212V17.1287Z" fill="#D66E41"/>
<path d="M3.57043 71.8623V112.031C3.57043 116.8 7.44818 120.666 12.2316 120.666H125.769C130.552 120.666 134.429 116.8 134.429 112.031V71.8623H3.57043Z" fill="#365E7D"/>
<path d="M3.57043 66.8697V71.8625C10.7659 77.5578 29.7829 88.6142 69 88.6142C108.217 88.6142 127.234 77.5578 134.429 71.8622V66.8694H3.57043V66.8697Z" fill="#2B4D66"/>
<path d="M3.19448 63.9945C10.0905 69.5915 29.0811 81.0473 69 81.0473C108.919 81.0473 127.909 69.5915 134.805 63.9945C136.827 62.3538 138 57.4769 138 54.8782V30.7555C138 25.9869 134.122 22.1211 129.339 22.1211H8.66108C3.87774 22.1211 0 25.9869 0 30.7555V54.8782C0 57.4769 1.173 62.3538 3.19448 63.9945Z" fill="#407093"/>
<path d="M134.805 61.5763C127.909 67.1734 108.919 78.6292 69 78.6292C29.0811 78.6292 10.0907 67.1731 3.19448 61.5763C1.173 59.9356 0 57.477 0 54.8784V59.8712C0 62.4698 1.173 64.9284 3.19448 66.5691C10.0905 72.1662 29.0811 83.6219 69 83.6219C108.919 83.6219 127.909 72.1662 134.805 66.5691C136.827 64.9284 138 62.4698 138 59.8712V54.8784C138 57.477 136.827 59.9356 134.805 61.5763Z" fill="#365E7D"/>
<path d="M68.9992 91.931C73.4799 91.931 77.1121 88.6143 77.1121 81.4249V76.5211C77.1121 74.9316 75.8195 73.6431 74.2251 73.6431H63.7733C62.1787 73.6431 60.8864 74.9318 60.8864 76.5211V81.4258C60.886 88.6143 64.5185 91.931 68.9992 91.931Z" fill="#FFE27A"/>
<path d="M68.9992 89.5127C64.5185 89.5127 60.8864 85.8919 60.8864 81.425V86.4181C60.8864 90.8844 64.5185 94.5061 68.9992 94.5061C73.4799 94.5061 77.1121 90.8844 77.1121 86.4181V81.425C77.1121 85.8919 73.4799 89.5127 68.9992 89.5127Z" fill="#F9CF58"/>
</g>
<defs>
<clipPath id="clip0_1_215">
<rect width="138" height="121" fill="white"/>
</clipPath>
</defs>
</svg>
